<svg xmlns="http://www.w3.org/2000/svg" viewBox="0 -0.5 122 122" shape-rendering="crispEdges">
<metadata>Made with Pixels to Svg https://codepen.io/shshaw/pen/XbxvNj</metadata>
<path stroke="#645460" d="M2 0h118M1 1h1M120 1h1" />
<path stroke="#000000" d="M2 1h118M1 2h1M120 2h1M1 3h1M120 3h1M1 4h1M120 4h1M1 5h1M120 5h1M1 6h1M120 6h1M1 7h1M120 7h1M1 8h1M120 8h1M1 9h1M120 9h1M1 10h1M120 10h1M1 11h1M120 11h1M1 12h1M120 12h1M1 13h1M120 13h1M1 14h1M120 14h1M1 15h1M120 15h1M1 16h1M120 16h1M1 17h1M120 17h1M1 18h1M120 18h1M1 19h1M120 19h1M1 20h1M120 20h1M1 21h1M120 21h1M1 22h1M120 22h1M1 23h1M120 23h1M1 24h1M120 24h1M1 25h1M120 25h1M1 26h1M120 26h1M1 27h1M120 27h1M1 28h1M120 28h1M1 29h1M120 29h1M1 30h1M120 30h1M1 31h1M120 31h1M1 32h1M120 32h1M1 33h1M120 33h1M1 34h1M120 34h1M1 35h1M120 35h1M1 36h1M120 36h1M1 37h1M120 37h1M1 38h1M120 38h1M1 39h1M120 39h1M1 40h1M120 40h1M1 41h1M120 41h1M1 42h1M120 42h1M1 43h1M120 43h1M1 44h1M120 44h1M1 45h1M120 45h1M1 46h1M120 46h1M1 47h1M120 47h1M1 48h1M120 48h1M1 49h1M120 49h1M1 50h1M120 50h1M1 51h1M120 51h1M1 52h1M120 52h1M1 53h1M120 53h1M1 54h1M120 54h1M1 55h1M120 55h1M1 56h1M120 56h1M1 57h1M120 57h1M1 58h1M120 58h1M1 59h1M120 59h1M1 60h1M120 60h1M1 61h1M120 61h1M1 62h1M120 62h1M1 63h1M120 63h1M1 64h1M120 64h1M1 65h1M120 65h1M1 66h1M120 66h1M1 67h1M120 67h1M1 68h1M120 68h1M1 69h1M120 69h1M1 70h1M120 70h1M1 71h1M120 71h1M1 72h1M120 72h1M1 73h1M120 73h1M1 74h1M120 74h1M1 75h1M120 75h1M1 76h1M120 76h1M1 77h1M120 77h1M1 78h1M120 78h1M1 79h1M120 79h1M1 80h1M120 80h1M1 81h1M120 81h1M1 82h1M120 82h1M1 83h1M120 83h1M1 84h1M120 84h1M1 85h1M120 85h1M1 86h1M120 86h1M1 87h1M120 87h1M1 88h1M120 88h1M1 89h1M120 89h1M1 90h1M120 90h1M1 91h1M120 91h1M1 92h1M120 92h1M1 93h1M120 93h1M1 94h1M120 94h1M1 95h1M120 95h1M1 96h1M120 96h1M1 97h1M120 97h1M1 98h1M120 98h1M1 99h1M120 99h1M1 100h1M120 100h1M1 101h1M120 101h1M1 102h1M120 102h1M1 103h1M120 103h1M1 104h1M120 104h1M1 105h1M120 105h1M1 106h1M120 106h1M1 107h1M120 107h1M1 108h1M120 108h1M1 109h1M120 109h1M1 110h1M120 110h1M1 111h1M120 111h1M1 112h1M120 112h1M1 113h1M120 113h1M1 114h1M120 114h1M1 115h1M120 115h1M1 116h1M120 116h1M1 117h1M120 117h1M1 118h1M120 118h1M1 119h1M120 119h1M2 120h118" />
<path stroke="#adcade" d="M0 2h1M121 2h1M0 3h1M121 3h1M0 4h1M121 4h1M0 5h1M121 5h1M0 6h1M121 6h1M0 7h1M121 7h1M0 8h1M121 8h1M0 9h1M121 9h1M0 10h1M121 10h1M0 11h1M121 11h1M0 12h1M121 12h1M0 13h1M121 13h1M0 14h1M121 14h1M0 15h1M121 15h1M0 16h1M121 16h1M0 17h1M121 17h1M0 18h1M121 18h1M0 19h1M121 19h1M0 20h1M121 20h1M0 21h1M121 21h1M0 22h1M121 22h1M0 23h1M121 23h1M0 24h1M121 24h1M0 25h1M121 25h1M0 26h1M121 26h1M0 27h1M121 27h1M0 28h1M121 28h1M0 29h1M121 29h1M0 30h1M121 30h1M0 31h1M121 31h1M0 32h1M121 32h1M0 33h1M121 33h1M0 34h1M121 34h1M0 35h1M121 35h1M0 36h1M121 36h1M0 37h1M121 37h1M0 38h1M121 38h1M0 39h1M121 39h1M0 40h1M121 40h1M0 41h1M121 41h1M0 42h1M121 42h1M0 43h1M121 43h1M0 44h1M121 44h1M0 45h1M121 45h1M0 46h1M121 46h1M0 47h1M121 47h1M0 48h1M121 48h1M0 49h1M121 49h1M0 50h1M121 50h1M0 51h1M121 51h1M0 52h1M121 52h1M0 53h1M121 53h1M0 54h1M121 54h1M0 55h1M121 55h1M0 56h1M121 56h1M0 57h1M121 57h1M0 58h1M121 58h1M0 59h1M121 59h1M0 60h1M121 60h1M0 61h1M121 61h1M0 62h1M121 62h1M0 63h1M121 63h1M0 64h1M121 64h1M0 65h1M121 65h1M0 66h1M121 66h1M0 67h1M121 67h1M0 68h1M121 68h1M0 69h1M121 69h1M0 70h1M121 70h1M0 71h1M121 71h1M0 72h1M121 72h1M0 73h1M121 73h1M0 74h1M121 74h1M0 75h1M121 75h1M0 76h1M121 76h1M0 77h1M121 77h1M0 78h1M121 78h1M0 79h1M121 79h1M0 80h1M121 80h1M0 81h1M121 81h1M0 82h1M121 82h1M0 83h1M121 83h1M0 84h1M121 84h1M0 85h1M121 85h1M0 86h1M121 86h1M0 87h1M121 87h1M0 88h1M121 88h1M0 89h1M121 89h1M0 90h1M121 90h1M0 91h1M121 91h1M0 92h1M121 92h1M0 93h1M121 93h1M0 94h1M121 94h1M0 95h1M121 95h1M0 96h1M121 96h1M0 97h1M121 97h1M0 98h1M121 98h1M0 99h1M121 99h1M0 100h1M121 100h1M0 101h1M121 101h1M0 102h1M121 102h1M0 103h1M121 103h1M0 104h1M121 104h1M0 105h1M121 105h1M0 106h1M121 106h1M0 107h1M121 107h1M0 108h1M121 108h1M0 109h1M121 109h1M0 110h1M121 110h1M0 111h1M121 111h1M0 112h1M121 112h1M0 113h1M121 113h1M0 114h1M121 114h1M0 115h1M121 115h1M0 116h1M121 116h1M0 117h1M121 117h1M0 118h1M121 118h1M0 119h1M121 119h1M2 121h118" />
<path stroke="#7c919d" d="M1 120h1M120 120h1" />
</svg>